<?xml version="1.0" encoding="UTF-8"?>
<svg version="1.1" xmlns="http://www.w3.org/2000/svg" width="383" height="780">
<path d="M0 0 C1.83771475 -0.01041829 1.83771475 -0.01041829 3.71255505 -0.02104706 C7.08757633 -0.03610216 10.46170882 -0.03340713 13.83668876 -0.02289402 C17.48643984 -0.01587135 21.13610289 -0.03192316 24.78582764 -0.04489136 C31.92602168 -0.06648611 39.06605605 -0.06641603 46.20627199 -0.05826581 C52.01258242 -0.05195463 57.81884645 -0.05311308 63.6251564 -0.05953789 C64.4529452 -0.06043954 65.280734 -0.0613412 66.13360731 -0.06227018 C67.8155032 -0.06412147 69.49739909 -0.06598403 71.17929496 -0.06785773 C86.93627928 -0.0844207 102.69317396 -0.07573009 118.45015289 -0.05887216 C132.84890985 -0.04417942 147.24745805 -0.05880022 161.64618813 -0.08764232 C176.44974785 -0.11707328 191.25321136 -0.12799765 206.05679905 -0.11846012 C207.73296617 -0.11743762 209.4091333 -0.11644301 211.08530045 -0.11547661 C212.32219243 -0.11476202 212.32219243 -0.11476202 213.58407214 -0.114033 C219.37847181 -0.1118736 225.17277989 -0.12164776 230.96715927 -0.13624763 C238.03589725 -0.15381077 245.10436929 -0.15359693 252.173097 -0.13089598 C255.77574001 -0.11978916 259.37791518 -0.1165093 262.98053741 -0.13519669 C266.89530718 -0.15524097 270.80935371 -0.13613689 274.72412109 -0.11352539 C275.84963029 -0.12536112 276.97513948 -0.13719685 278.13475502 -0.14939123 C291.36526723 0.00525549 301.12943953 5.60986606 310.57498169 14.47169495 C321.98894959 26.25738211 325.78311267 40.24935493 325.79202271 56.20973206 C325.80046204 57.34590469 325.80890137 58.48207733 325.81759644 59.65267944 C325.84326293 63.38662668 325.8554913 67.12049489 325.86795044 70.85450745 C325.88413993 73.46328342 325.90132143 76.07205342 325.91944885 78.68081665 C325.96095785 84.83803833 325.99343285 90.99526821 326.02192301 97.15256268 C326.0760178 108.82140191 326.1444252 120.49014211 326.21986198 132.15886116 C326.24258033 135.97976025 326.25892634 139.80064833 326.27458191 143.62158203 C326.28799834 145.97778949 326.30161398 148.33399583 326.31546021 150.69020081 C326.31938026 152.27014328 326.31938026 152.27014328 326.32337952 153.88200378 C326.36162188 159.39016028 326.65705767 164.77229847 327.26391125 170.24629116 C327.58380612 173.46945669 327.61627143 176.66697313 327.61843872 179.90455627 C327.6210672 180.90419403 327.6210672 180.90419403 327.62374878 181.92402649 C327.62808348 184.08577727 327.6252611 186.24744361 327.62185669 188.40919495 C327.62253174 189.92992163 327.62350344 191.4506482 327.62475586 192.97137451 C327.62622111 196.13905375 327.62411476 199.30670458 327.61941528 202.47438049 C327.61369418 206.52716973 327.61701942 210.57989307 327.62298775 214.63267994 C327.62660432 217.76482641 327.62545014 220.89695729 327.62285995 224.02910423 C327.62219499 225.52378535 327.62300402 227.01846791 327.62533951 228.51314735 C327.62788675 230.59938432 327.6239974 232.68551472 327.61843872 234.77174377 C327.61724533 236.5485125 327.61724533 236.5485125 327.61602783 238.36117554 C327.48904419 241.5146637 327.48904419 241.5146637 326.98925054 243.69711727 C326.33427238 247.38645742 326.34963726 251.01542668 326.35875893 254.74889469 C326.3568155 255.57837186 326.35487207 256.40784903 326.35286975 257.26246187 C326.34753689 260.05415026 326.34931374 262.84578936 326.35101318 265.63748169 C326.34859552 267.6543974 326.34573337 269.67131261 326.34246385 271.68822712 C326.33470173 277.24053668 326.33309095 282.79283389 326.33241272 288.34514821 C326.33057457 294.32967132 326.32296853 300.31418719 326.31593323 306.29870605 C326.30515064 315.99920004 326.29697718 325.69969294 326.29105311 335.40019099 C326.28101735 351.77936493 326.26176212 368.15851805 326.23951073 384.53767948 C326.23098024 390.84067851 326.22271389 397.14367789 326.21440697 403.44667721 C326.21348196 404.1469687 326.21255695 404.84726019 326.21160391 405.56877264 C326.18961109 422.24026871 326.16982174 438.9117671 326.15115356 455.58326721 C326.15033389 456.31275659 326.14951421 457.04224597 326.14866969 457.79384109 C326.12959098 474.80814073 326.11262837 491.82244025 326.10031128 508.83674622 C326.09978161 509.56817223 326.09925194 510.29959824 326.09870623 511.05318868 C326.09445469 516.9486668 326.09027836 522.84414497 326.08612143 528.73962315 C326.06891574 553.05771073 326.04169349 577.37576989 326.00296105 601.69383305 C325.99749942 605.12977054 325.99216641 608.56570822 325.9869194 612.00164604 C325.98588502 612.6778482 325.98485064 613.35405036 325.98378491 614.05074349 C325.96747397 624.92435986 325.96193205 635.79795629 325.96062174 646.67158373 C325.95911567 657.60555006 325.94670493 668.53946724 325.92386533 679.47341085 C325.91183929 685.39481539 325.90468308 691.31612128 325.91057777 697.23753738 C325.91588069 702.66163358 325.90737115 708.08552869 325.88802139 713.50959133 C325.88345408 715.4685874 325.88390504 717.42760319 325.88996978 719.3865952 C325.94295333 738.1832813 323.31909222 753.0721507 309.90701294 767.2256012 C299.53028577 777.04912643 289.15631775 781.13452872 274.96463013 781.02259827 C273.73807583 781.02883823 272.51152153 781.03507819 271.24779892 781.04150724 C267.86890838 781.05463564 264.49091615 781.05000123 261.11208153 781.03756237 C257.45828647 781.02847248 253.80456713 781.04250102 250.15078735 781.05348206 C243.00323525 781.07123006 235.85585155 781.06744396 228.70829296 781.05583149 C222.89719961 781.04678275 217.08615331 781.04557939 211.27505493 781.04992676 C210.44668869 781.05053969 209.61832244 781.05115262 208.76485419 781.05178413 C207.08182683 781.05306308 205.39879949 781.05435994 203.71577215 781.05567449 C187.9493061 781.0670694 172.18293322 781.05398372 156.41648245 781.03247303 C142.90025847 781.01460303 129.38417193 781.01770744 115.86795044 781.03614807 C100.15631474 781.05757407 84.44476061 781.06597086 68.73311234 781.05369902 C67.05641939 781.05242488 65.37972642 781.05116739 63.70303345 781.04992676 C62.87815737 781.04930966 62.05328128 781.04869255 61.20340896 781.04805675 C55.40207565 781.04460904 49.60079426 781.0504197 43.79946899 781.05984497 C36.72557631 781.07108557 29.65186108 781.06798174 22.57798862 781.04672199 C18.97160646 781.03623915 15.36551972 781.03204205 11.75914001 781.0453186 C7.8437472 781.05951432 3.92883378 781.04251732 0.01345825 781.02259827 C-1.11787663 781.03152115 -2.2492115 781.04044404 -3.41482925 781.04963732 C-16.63206483 780.91942031 -26.20778862 775.28806746 -35.77267456 766.41700745 C-49.61816958 751.88583077 -50.97295826 733.95443974 -50.87171936 714.97514343 C-50.87302995 713.13164794 -50.87566103 711.28815301 -50.87948686 709.44466102 C-50.8861539 704.41392038 -50.87425159 699.38337354 -50.85915267 694.35265756 C-50.84614166 688.91454369 -50.85058534 683.47643988 -50.8528595 678.03831482 C-50.85442904 668.62800147 -50.84505325 659.21775075 -50.82814598 649.80745316 C-50.80371719 636.20191769 -50.79594674 622.59641237 -50.79218201 608.99085735 C-50.78562361 586.914303 -50.76567904 564.83778199 -50.73727417 542.76124573 C-50.70971777 521.32179429 -50.68845729 499.88235196 -50.67575073 478.44288635 C-50.67535615 477.78136689 -50.67496158 477.11984744 -50.67455504 476.43828193 C-50.67020675 469.13543775 -50.66603129 461.83259348 -50.66192663 454.52974916 C-50.63084976 399.52469765 -50.57803062 344.51968227 -50.51095581 289.5146637 C-51.50095581 289.1846637 -52.49095581 288.8546637 -53.51095581 288.5146637 C-53.51095581 270.6946637 -53.51095581 252.8746637 -53.51095581 234.5146637 C-52.52095581 234.1846637 -51.53095581 233.8546637 -50.51095581 233.5146637 C-50.51095581 228.8946637 -50.51095581 224.2746637 -50.51095581 219.5146637 C-51.17095581 219.5146637 -51.83095581 219.5146637 -52.51095581 219.5146637 C-53.57317922 213.45408315 -53.65611211 207.54536801 -53.64376831 201.40138245 C-53.64472504 200.35062027 -53.64568176 199.29985809 -53.64666748 198.21725464 C-53.64734534 196.00771525 -53.64551865 193.79817382 -53.6413269 191.58863831 C-53.63594619 188.19609665 -53.64129899 184.80368578 -53.64767456 181.41114807 C-53.64701424 179.26205924 -53.64573402 177.11297048 -53.64376831 174.96388245 C-53.64579254 173.94622299 -53.64781677 172.92856354 -53.64990234 171.88006592 C-53.64675018 170.94181473 -53.64359802 170.00356354 -53.64035034 169.03688049 C-53.63955475 168.20972031 -53.63875916 167.38256012 -53.63793945 166.53033447 C-53.51095581 164.5146637 -53.51095581 164.5146637 -52.51095581 162.5146637 C-51.85095581 162.5146637 -51.19095581 162.5146637 -50.51095581 162.5146637 C-50.51095581 150.6346637 -50.51095581 138.7546637 -50.51095581 126.5146637 C-51.50095581 126.1846637 -52.49095581 125.8546637 -53.51095581 125.5146637 C-53.56035243 121.56369392 -53.59667336 117.6128434 -53.62081909 113.66163635 C-53.63583688 111.6555501 -53.66124562 109.64955045 -53.68673706 107.64356995 C-53.69640503 105.75831604 -53.69640503 105.75831604 -53.70626831 103.8349762 C-53.71674194 102.67240295 -53.72721558 101.50982971 -53.73800659 100.31202698 C-53.51095581 97.5146637 -53.51095581 97.5146637 -51.51095581 95.5146637 C-51.2014657 93.47335801 -51.2014657 93.47335801 -51.23971558 91.10353088 C-51.22952896 90.18787354 -51.21934235 89.27221619 -51.20884705 88.32881165 C-51.206707 87.33311157 -51.20456696 86.3374115 -51.20236206 85.3115387 C-51.17716432 83.19434889 -51.15176696 81.07716146 -51.12619019 78.9599762 C-51.09766484 75.62958113 -51.07365296 72.29922833 -51.05465698 68.96876526 C-50.91310978 48.20643476 -50.11810127 29.61925183 -34.92892456 13.76856995 C-24.47449734 4.02348997 -14.22196846 -0.10371945 0 0 Z M-31.72579956 24.9912262 C-39.38464903 35.81752107 -41.81788611 46.17871528 -41.76822472 59.1762495 C-41.77173079 60.33980985 -41.77523687 61.5033702 -41.77884918 62.70218995 C-41.78654307 65.92833249 -41.78531548 69.15432842 -41.78029364 72.38047164 C-41.77702139 75.89172215 -41.78531423 79.40294872 -41.79211199 82.91419154 C-41.80241298 89.06709654 -41.80525561 95.21997008 -41.80319977 101.37288284 C-41.80015004 110.52271557 -41.80847315 119.67251347 -41.81894902 128.82233943 C-41.83829477 146.11518736 -41.84391746 163.40802343 -41.84506314 180.70088091 C-41.84598211 194.05536851 -41.85009819 207.40985145 -41.85646439 220.76433754 C-41.85825947 224.60797987 -41.86003909 228.4516222 -41.86181414 232.29526454 C-41.86225624 233.25079871 -41.86269833 234.20633288 -41.86315383 235.19082263 C-41.87546297 262.06989341 -41.88335488 288.94896258 -41.88246727 315.82803631 C-41.88243611 316.84152248 -41.88240495 317.85500865 -41.88237285 318.89920652 C-41.88220664 324.0360092 -41.88200856 329.17281188 -41.88180344 334.30961456 C-41.88176355 335.32980689 -41.88172366 336.34999922 -41.88168256 337.40110646 C-41.88160168 339.46418438 -41.88151809 341.5272623 -41.88143178 343.59034021 C-41.88020629 375.6877728 -41.89521865 407.78516313 -41.9225769 439.88258362 C-41.95329933 475.94181659 -41.9705093 512.00102181 -41.96865046 548.0602687 C-41.9685012 551.90548281 -41.96840379 555.75069692 -41.96834183 559.59591103 C-41.96831852 560.54270375 -41.96829521 561.48949648 -41.96827119 562.4649799 C-41.96820965 577.70009402 -41.98098038 592.93517146 -41.99820636 608.17027467 C-42.01516172 623.48277565 -42.01713743 638.79522297 -42.00398771 654.10772815 C-41.9965979 663.20330516 -42.00025746 672.29871912 -42.01987239 681.39427885 C-42.03187405 687.4734454 -42.02927928 693.55249389 -42.0149314 699.63165503 C-42.00716992 703.09308349 -42.00561178 706.55419649 -42.0218461 710.01560267 C-42.03597319 713.75198093 -42.02537451 717.48752211 -42.00873375 721.22387218 C-42.01867011 722.2880152 -42.02860647 723.35215822 -42.03884393 724.44854799 C-41.91310324 737.82095869 -37.46875536 749.80756266 -28.47970581 759.7646637 C-22.90881425 765.09334258 -16.57754236 768.52018573 -9.51095581 771.5146637 C-8.2876495 772.039337 -8.2876495 772.039337 -7.03962994 772.57460976 C-2.05745496 773.90188256 2.70742601 773.79692131 7.84236145 773.78208923 C8.99128854 773.78662035 10.14021563 773.79115146 11.32395869 773.79581988 C14.50445323 773.80627718 17.68480528 773.80779192 20.8653115 773.80543113 C24.29900276 773.80502242 27.73266049 773.81606739 31.16633606 773.82554626 C37.89093907 773.84214648 44.61550701 773.8476554 51.3401288 773.84877102 C56.80852754 773.84972211 62.27691474 773.85383546 67.74530983 773.86017227 C83.25932752 773.87778326 98.77331756 773.88701155 114.28734531 773.88551132 C115.12339569 773.88543141 115.95944606 773.8853515 116.8208313 773.88526917 C117.65790624 773.8851874 118.49498118 773.88510564 119.35742203 773.8850214 C132.91642965 773.8842089 146.47532607 773.90333789 160.03430154 773.9315459 C173.96647541 773.96030083 187.89859511 773.97408471 201.8307994 773.97235835 C209.64863233 773.97169527 217.46634874 773.97715126 225.28415489 773.99871445 C231.94198474 774.0169608 238.59964527 774.02124548 245.25748935 774.0076956 C248.6514076 774.00118264 252.04473742 774.00317707 255.4386673 774.0184021 C259.12633572 774.03387051 262.81315811 774.02453435 266.50080872 774.00914001 C268.09247888 774.0245707 268.09247888 774.0245707 269.716304 774.04031312 C282.5258719 773.92255705 294.0647608 768.59068642 303.61404419 760.1396637 C310.7246924 752.69593013 316.60893629 740.94933838 316.61784536 730.60622686 C316.62111755 729.6109983 316.62438974 728.61576973 316.6277611 727.59038273 C316.62553566 725.95036376 316.62553566 725.95036376 316.62326527 724.2772131 C316.6256175 723.11091544 316.62796973 721.94461778 316.63039324 720.74297777 C316.6359231 717.49056211 316.63695427 714.23818011 316.63611583 710.98576097 C316.63628518 707.45297725 316.64218967 703.9202024 316.64735669 700.3874231 C316.6566904 693.37372594 316.66060603 686.3600351 316.66287565 679.34633251 C316.66583572 670.9480214 316.67453198 662.54971868 316.68328993 654.15141197 C316.70414332 633.85073461 316.71460551 613.55005577 316.72341954 593.24937019 C316.72762475 583.6476581 316.73284691 574.04594664 316.73810407 564.44423507 C316.75599497 531.58335368 316.7709915 498.72247211 316.77842426 465.86158657 C316.77889902 463.79820869 316.77937491 461.73483082 316.77985192 459.67145294 C316.7800883 458.64819231 316.78032468 457.62493167 316.78056822 456.57066313 C316.78176943 451.38622517 316.78298487 446.2017872 316.78421021 441.01734924 C316.78445036 439.98847768 316.7846905 438.95960612 316.78493793 437.89955663 C316.79283184 404.53691087 316.8162652 371.17430065 316.84876615 337.81167042 C316.8830567 302.54767728 316.90277468 267.28370495 316.9060685 232.01969486 C316.90648605 228.1491779 316.90696561 224.27866095 316.90749168 220.408144 C316.90761488 219.45509782 316.90773807 218.50205164 316.90786499 217.52012528 C316.91019798 202.1765329 316.92586342 186.83298177 316.94633353 171.4894041 C316.96657999 156.06891318 316.97207441 140.64847186 316.9625629 125.22797012 C316.95734336 116.06533671 316.96324679 106.90286829 316.98509757 97.7402586 C316.99859331 91.61881059 316.99753952 85.49747631 316.98469561 79.3760272 C316.97779078 75.88873448 316.97715696 72.40175746 316.9942557 68.91449278 C317.00931723 65.15371224 316.99974023 61.39376213 316.98402882 57.63300228 C316.99936213 56.01756556 316.99936213 56.01756556 317.0150052 54.36949375 C316.90004103 41.77616568 311.84142506 29.99451234 303.23904419 20.7646637 C292.93157569 11.15792222 280.47433105 6.88899895 266.57914734 7.00672913 C264.85653219 6.99736918 264.85653219 6.99736918 263.09911674 6.98782015 C259.27778886 6.97195444 255.45710453 6.98446995 251.63577271 6.99708557 C248.88516943 6.99386064 246.13459289 6.9846812 243.38400269 6.97584534 C236.70448185 6.95811377 230.0251414 6.9618762 223.34561367 6.9734959 C217.91356508 6.98255192 212.48156684 6.98374487 207.04951286 6.97940063 C205.8871307 6.97848124 205.8871307 6.97848124 204.70126606 6.97754326 C203.1267147 6.97626428 201.55216335 6.97496743 199.97761201 6.9736529 C185.23306012 6.96226262 170.48860791 6.97533599 155.74407237 6.99685436 C143.11140564 7.01472041 130.47888599 7.01162233 117.84622192 6.99317932 C103.15378763 6.97173901 88.4614406 6.96336483 73.76899284 6.97562838 C72.20012567 6.97690248 70.63125848 6.97815997 69.06239128 6.97940063 C68.29060971 6.98001774 67.51882813 6.98063484 66.72365924 6.98127064 C61.30296517 6.98471434 55.88232676 6.97891634 50.46164131 6.96948242 C43.84859185 6.95822569 37.23573214 6.96137907 30.62270422 6.9826054 C27.25294345 6.99306755 23.88375773 6.99514292 20.51395988 6.98400879 C16.85097007 6.97302458 13.18885902 6.98685333 9.52592468 7.00672913 C7.9495761 6.9933448 7.9495761 6.9933448 6.34138209 6.97969007 C-8.57512216 7.13591778 -22.1621098 13.48337773 -31.72579956 24.9912262 Z " fill="#303030" transform="translate(54.510955810546875,-0.5146636962890625)"/>
<path d="M0 0 C1.13812728 -0.00482883 2.27625456 -0.00965766 3.44887054 -0.01463282 C7.24120616 -0.02585402 11.03286003 -0.00862145 14.82516479 0.00863647 C17.55255011 0.00870491 20.27991501 0.00276986 23.0072937 -0.00286865 C29.63282074 -0.01292035 36.25814715 -0.00171072 42.88364924 0.01683195 C50.6052914 0.03766107 58.32689087 0.03745796 66.04855584 0.03648679 C79.8279755 0.03548687 93.60730213 0.05377371 107.38668823 0.08285522 C120.74738255 0.11103835 134.10799503 0.12519617 147.46871948 0.12387085 C148.29195379 0.12379094 149.1151881 0.12371102 149.96336891 0.12362869 C150.78520278 0.12354798 151.60703665 0.12346727 152.45377457 0.12338412 C167.68163349 0.12200332 182.90945775 0.13378949 198.13730542 0.15169055 C203.5157642 0.15771444 208.89421659 0.15984861 214.27267838 0.16075516 C220.82836522 0.16212156 227.38399362 0.17108073 233.93965568 0.18942077 C237.28244461 0.19863336 240.62509575 0.20368893 243.96790695 0.20223236 C247.59490674 0.20125003 251.22166649 0.21257141 254.84863281 0.22705078 C255.90019251 0.22395358 256.95175221 0.22085637 258.03517735 0.21766531 C263.80288109 0.25569167 268.76539889 0.83835056 274.29733276 2.49447632 C274.29733276 3.15447632 274.29733276 3.81447632 274.29733276 4.49447632 C273.42042569 4.49594153 273.42042569 4.49594153 272.52580333 4.49743634 C237.89618817 4.5556774 203.26664191 4.62945062 168.63710521 4.7234626 C164.48136756 4.73473109 160.32562957 4.74586949 156.16989136 4.75692749 C155.34254031 4.75913117 154.51518926 4.76133486 153.66276696 4.76360532 C140.25713641 4.79900134 126.85150592 4.82385245 113.44584593 4.84482334 C99.69579825 4.86656706 85.94581134 4.89960382 72.19581532 4.94317788 C63.70771862 4.9697193 55.21969767 4.9873963 46.73156151 4.99382236 C40.9150942 4.99906865 35.09872232 5.01525996 29.2823061 5.04014198 C25.92383001 5.05418334 22.56567145 5.06169879 19.20714378 5.05948448 C15.56934116 5.05784277 11.9320718 5.07443727 8.29434204 5.0957489 C6.69513007 5.08847754 6.69513007 5.08847754 5.06361079 5.08105928 C4.09074602 5.09051582 3.11788126 5.09997236 2.11553574 5.10971546 C1.27559437 5.11161406 0.435653 5.11351267 -0.42974114 5.1154688 C-3.19861142 5.57717438 -4.6070854 6.67385842 -6.70266724 8.49447632 C-6.70266724 7.83447632 -6.70266724 7.17447632 -6.70266724 6.49447632 C-11.96108326 8.50594808 -16.91356427 10.50128696 -21.70266724 13.49447632 C-22.36266724 13.49447632 -23.02266724 13.49447632 -23.70266724 13.49447632 C-23.96047974 14.07713257 -24.21829224 14.65978882 -24.48391724 15.26010132 C-25.8010074 17.67476662 -27.25355108 19.31187809 -29.20266724 21.24447632 C-30.11532349 22.16486694 -30.11532349 22.16486694 -31.04641724 23.10385132 C-32.70266724 24.49447632 -32.70266724 24.49447632 -34.70266724 24.49447632 C-34.9691789 25.18411663 -35.23569057 25.87375695 -35.51027834 26.58429545 C-36.33056751 28.58631832 -37.22723677 30.5581779 -38.18416727 32.49860412 C-43.88891797 45.21332221 -43.55425461 57.69942822 -43.46106984 71.44323143 C-43.44388715 74.97145878 -43.4618864 78.49954832 -43.47519815 82.02776843 C-43.4937088 88.19811106 -43.49014192 94.36812704 -43.47173309 100.5384655 C-43.4444341 109.71401026 -43.45169673 118.88930611 -43.4656503 128.06486929 C-43.48946095 144.45498154 -43.47936511 160.84493958 -43.45509375 177.23504328 C-43.4340011 191.57661259 -43.42494536 205.91812942 -43.42768478 220.25971413 C-43.42785285 221.2119206 -43.42802091 222.16412708 -43.42819406 223.14518829 C-43.42889858 227.01070784 -43.42966661 230.87622736 -43.43052521 234.74174687 C-43.43845033 270.98191714 -43.41304216 307.22199464 -43.37147209 343.46213837 C-43.33472595 375.64815267 -43.32311027 407.83407807 -43.33401489 440.02011108 C-43.33470776 442.0872688 -43.33539996 444.15442651 -43.33609147 446.22158422 C-43.33643346 447.24355654 -43.33677545 448.26552885 -43.33712781 449.31847003 C-43.33883494 454.463123 -43.34048251 459.60777599 -43.34206581 464.75242901 C-43.34237997 465.76742831 -43.34269413 466.78242761 -43.34301781 467.82818446 C-43.3509998 494.7382426 -43.34004443 521.64829219 -43.32304323 548.55834514 C-43.32122918 551.45419877 -43.31941788 554.35005241 -43.31761277 557.24590605 C-43.31641055 559.16686312 -43.31519331 561.08782019 -43.31396095 563.00877725 C-43.30552283 576.39295274 -43.30435974 589.77711143 -43.30817194 603.16128873 C-43.31306001 620.40828262 -43.30489664 637.65518644 -43.27375193 654.90215572 C-43.2576658 664.01997845 -43.25243772 673.13765123 -43.26303664 682.25548288 C-43.26899941 688.34921644 -43.26035905 694.44281769 -43.23993949 700.53651964 C-43.22870937 704.00610781 -43.22363984 707.4753907 -43.23627265 710.94498106 C-43.24650673 714.69001923 -43.2320841 718.43420066 -43.21161842 722.17917919 C-43.22041139 723.24584846 -43.22920436 724.31251774 -43.23826379 725.41151032 C-43.11379814 737.38614596 -39.44016809 747.6658693 -32.70266724 757.49447632 C-32.12516724 758.38135132 -31.54766724 759.26822632 -30.95266724 760.18197632 C-23.14747058 768.20398399 -11.64093008 775.01261881 -0.27989453 775.62508684 C0.57181817 775.62774489 1.42353087 775.63040293 2.30105305 775.63314152 C3.28984245 775.63861596 4.27863185 775.64409041 5.29738456 775.64973074 C6.37617682 775.65070885 7.45496909 775.65168696 8.56645203 775.6526947 C9.71820236 775.65763268 10.8699527 775.66257066 12.05660456 775.66765827 C15.24915199 775.68035736 18.4416759 775.68865036 21.63424098 775.69508493 C25.07864237 775.70310003 28.52302172 775.71679398 31.96740723 775.72979736 C37.93361025 775.75154436 43.89981551 775.76969534 49.86603737 775.7854023 C58.49218668 775.80811711 67.11831158 775.8362577 75.74444016 775.86572158 C89.73984345 775.91337773 103.73525672 775.95664727 117.73068237 775.99716187 C131.32574236 776.03652685 144.92079348 776.07795548 158.51583862 776.12216187 C159.77288683 776.12624827 159.77288683 776.12624827 161.05532996 776.13041724 C165.25950092 776.14409688 169.46367174 776.15781712 173.66784251 776.17155755 C208.54432087 776.28549127 243.42081803 776.39230749 278.29733276 776.49447632 C273.42941521 781.36239388 264.28083194 780.72858165 257.77701473 780.77128732 C256.73128072 780.76819012 255.6855467 780.76509291 254.60812378 780.76190186 C253.47140763 780.76643297 252.33469149 780.77096408 251.1635294 780.7756325 C247.37605728 780.7882358 243.58872971 780.78665876 239.80123901 780.78500366 C237.07710228 780.78990785 234.35297552 780.79774131 231.62884521 780.80535889 C225.01073783 780.82191711 218.39266609 780.827466 211.77453971 780.82858364 C206.39347056 780.82953621 201.0124131 780.83365687 195.63134766 780.83998489 C180.35724694 780.85758012 165.08317424 780.866826 149.80906332 780.86532395 C148.98695981 780.86524403 148.16485631 780.86516412 147.31784058 780.86508179 C146.0831714 780.86495915 146.0831714 780.86495915 144.8235594 780.86483403 C131.47752522 780.86402074 118.13160378 780.88317366 104.78560221 780.91135852 C91.06461874 780.94010564 77.34369024 780.95389794 63.6226759 780.95217097 C55.92621784 780.95150789 48.22987812 780.95696467 40.53344727 780.97852707 C33.9829165 780.99676256 27.4325578 781.00106655 20.88201261 780.98750822 C17.54286943 780.98099138 14.20432469 780.98300032 10.86516953 780.99821472 C7.23866679 781.01366659 3.61302612 781.00435814 -0.01345825 780.98895264 C-1.58205927 781.00438333 -1.58205927 781.00438333 -3.18234921 781.02012575 C-16.07952465 780.89934412 -25.66380217 775.02275014 -34.96438599 766.39682007 C-48.80988101 751.86564339 -50.16466968 733.93425236 -50.06343079 714.95495605 C-50.06474138 713.11146057 -50.06737246 711.26796563 -50.07119828 709.42447364 C-50.07786532 704.39373301 -50.06596301 699.36318616 -50.0508641 694.33247018 C-50.03785308 688.89435631 -50.04229677 683.4562525 -50.04457092 678.01812744 C-50.04614046 668.6078141 -50.03676468 659.19756337 -50.01985741 649.78726578 C-49.99542862 636.18173031 -49.98765817 622.57622499 -49.98389343 608.97066997 C-49.97733503 586.89411562 -49.95739046 564.81759461 -49.9289856 542.74105835 C-49.9014292 521.30160691 -49.88016872 499.86216459 -49.86746216 478.42269897 C-49.86706758 477.76117952 -49.866673 477.09966006 -49.86626647 476.41809455 C-49.86191818 469.11525037 -49.85774272 461.8124061 -49.85363805 454.50956178 C-49.82256118 399.50451027 -49.76974204 344.49949489 -49.70266724 289.49447632 C-50.69266724 289.16447632 -51.68266724 288.83447632 -52.70266724 288.49447632 C-52.70266724 270.67447632 -52.70266724 252.85447632 -52.70266724 234.49447632 C-51.71266724 234.16447632 -50.72266724 233.83447632 -49.70266724 233.49447632 C-49.70266724 228.87447632 -49.70266724 224.25447632 -49.70266724 219.49447632 C-50.36266724 219.49447632 -51.02266724 219.49447632 -51.70266724 219.49447632 C-52.76489065 213.43389577 -52.84782353 207.52518063 -52.83547974 201.38119507 C-52.83643646 200.33043289 -52.83739319 199.27967072 -52.83837891 198.19706726 C-52.83905676 195.98752787 -52.83723008 193.77798645 -52.83303833 191.56845093 C-52.82765761 188.17590927 -52.83301042 184.7834984 -52.83938599 181.39096069 C-52.83872566 179.24187186 -52.83744544 177.09278311 -52.83547974 174.94369507 C-52.83750397 173.92603561 -52.8395282 172.90837616 -52.84161377 171.85987854 C-52.83846161 170.92162735 -52.83530945 169.98337616 -52.83206177 169.01669312 C-52.83126617 168.18953293 -52.83047058 167.36237274 -52.82965088 166.51014709 C-52.70266724 164.49447632 -52.70266724 164.49447632 -51.70266724 162.49447632 C-51.04266724 162.49447632 -50.38266724 162.49447632 -49.70266724 162.49447632 C-49.70266724 150.61447632 -49.70266724 138.73447632 -49.70266724 126.49447632 C-50.69266724 126.16447632 -51.68266724 125.83447632 -52.70266724 125.49447632 C-52.75206386 121.54350654 -52.78838479 117.59265602 -52.81253052 113.64144897 C-52.82754831 111.63536272 -52.85295704 109.62936307 -52.87844849 107.62338257 C-52.88811646 105.73812866 -52.88811646 105.73812866 -52.89797974 103.81478882 C-52.90845337 102.65221558 -52.918927 101.48964233 -52.92971802 100.2918396 C-52.70266724 97.49447632 -52.70266724 97.49447632 -50.70266724 95.49447632 C-50.39317712 93.45317064 -50.39317712 93.45317064 -50.431427 91.08334351 C-50.42124039 90.16768616 -50.41105377 89.25202881 -50.40055847 88.30862427 C-50.39841843 87.31292419 -50.39627838 86.31722412 -50.39407349 85.29135132 C-50.36887575 83.17416151 -50.34347839 81.05697408 -50.31790161 78.93978882 C-50.28937627 75.60939376 -50.26536438 72.27904095 -50.24636841 68.94857788 C-50.1048212 48.18624738 -49.30981269 29.59906446 -34.12063599 13.74838257 C-23.99010224 4.30521944 -13.82608388 -0.13583317 0 0 Z " fill="#0C0C0C" transform="translate(53.702667236328125,-0.494476318359375)"/>
<path d="M0 0 C15.81696461 -0.68613368 28.26250415 -0.59054253 40.9140625 10.07421875 C51.47955082 19.82849917 59.14043205 32.0322494 60.19195747 46.67262077 C60.27702477 49.68152943 60.30129809 52.68495526 60.30297852 55.69506836 C60.31141785 56.831241 60.31985718 57.96741364 60.32855225 59.13801575 C60.35421874 62.87196298 60.36644711 66.6058312 60.37890625 70.33984375 C60.39509574 72.94861973 60.41227724 75.55738972 60.43040466 78.16615295 C60.47191366 84.32337464 60.50438866 90.48060452 60.53287882 96.63789898 C60.58697361 108.30673821 60.65538101 119.97547841 60.73081779 131.64419746 C60.75353614 135.46509655 60.76988215 139.28598463 60.78553772 143.10691833 C60.79895415 145.4631258 60.81256979 147.81933213 60.82641602 150.17553711 C60.83033607 151.75547958 60.83033607 151.75547958 60.83433533 153.36734009 C60.87256846 158.87416684 61.16919143 164.25412442 61.77584553 169.72673512 C62.09648614 172.97851514 62.11955128 176.20320703 62.11352539 179.46923828 C62.11367142 180.14369492 62.11381744 180.81815155 62.1139679 181.51304626 C62.11328216 183.69883671 62.10555403 185.88453731 62.09765625 188.0703125 C62.09578729 189.6030167 62.09436565 191.1357215 62.09336853 192.66842651 C62.08958097 196.66977639 62.07978354 200.671089 62.06866455 204.67242432 C62.05836883 208.76859025 62.05385356 212.86476231 62.04882812 216.9609375 C62.03815727 224.97397529 62.02112698 232.98698299 62 241 C59.39421251 238.39421251 59.73483436 237.29554426 59.69702148 233.66210938 C59.67198296 231.94726097 59.67198296 231.94726097 59.6464386 230.19776917 C59.6380748 228.92594284 59.629711 227.65411652 59.62109375 226.34375 C59.60520839 224.97764623 59.58847512 223.6115521 59.57096863 222.24546814 C59.53462742 219.25464859 59.50477151 216.26385248 59.47955322 213.2729187 C59.43861845 208.44360013 59.38167871 203.61453975 59.32373047 198.78540039 C59.11233194 180.61693317 58.9784432 162.44811379 58.86872864 144.27877808 C58.81778762 135.89662635 58.75791651 127.51454207 58.69671535 119.13245964 C58.64615477 112.05030456 58.60955095 104.9682468 58.58318424 97.88596249 C58.56356481 93.40124431 58.53188755 88.91666461 58.49730873 84.43203926 C58.48372679 82.34629546 58.47509051 80.26051218 58.47197533 78.17472649 C58.43900924 59.04789085 58.08401828 38.2210746 45 23 C45.41765625 23.82177734 45.41765625 23.82177734 45.84375 24.66015625 C47.11411979 27.23093835 48.3125905 29.82737118 49.5 32.4375 C49.9228125 33.36433594 50.345625 34.29117188 50.78125 35.24609375 C51.1834375 36.15488281 51.585625 37.06367187 52 38 C52.34994233 38.7778927 52.69988467 39.55578539 53.06043131 40.3572506 C54.04003174 43.11259832 54.25063116 45.12668199 54.251849 48.03789669 C54.25711226 49.03654974 54.26237552 50.03520279 54.26779827 51.06411806 C54.26340179 52.15615552 54.25900531 53.24819298 54.25447559 54.37332249 C54.25768207 55.54216277 54.26088855 56.71100305 54.26419219 57.91526273 C54.27108043 61.17019375 54.26897798 64.42497818 54.26313647 67.67990676 C54.25897422 71.21713176 54.26636356 74.75433547 54.27228898 78.29155535 C54.2810649 84.49469236 54.28235816 90.69779636 54.27878571 96.90093803 C54.2734872 106.12545513 54.27956549 115.34994018 54.28786864 124.57445379 C54.30312876 142.0080076 54.30481155 159.4415469 54.30234561 176.87510598 C54.30051432 190.33836933 54.3022691 203.80162792 54.30657005 217.26489067 C54.30717245 219.19785278 54.30777365 221.1308149 54.30837366 223.06377701 C54.3092809 225.97645983 54.31018956 228.88914265 54.31110601 231.80182547 C54.31953895 258.89273313 54.32386898 285.98363898 54.31969929 313.07454777 C54.31954291 314.09637151 54.31938654 315.11819524 54.31922542 316.17098334 C54.31841962 321.35018921 54.31757385 326.52939508 54.31671212 331.70860095 C54.31645549 333.25155381 54.31645549 333.25155381 54.31619367 334.82567744 C54.31584702 336.90583074 54.31549849 338.98598403 54.31514808 341.06613733 C54.30979227 373.42488033 54.31771594 405.78359607 54.33618164 438.14233398 C54.35689684 474.48573211 54.3676251 510.82911335 54.36360615 547.17251772 C54.3632108 551.04781147 54.36284926 554.92310522 54.36250877 558.79839897 C54.36241804 559.75261438 54.36232731 560.70682978 54.36223383 561.6899608 C54.36106762 576.09787528 54.36771808 590.50577272 54.37832069 604.91368294 C54.39036833 621.30209269 54.39193685 637.69046489 54.37953053 654.07887519 C54.37289848 663.25016 54.37454089 672.42135505 54.38811904 681.59263268 C54.39636041 687.7210955 54.39367003 693.84949106 54.38214377 699.9779484 C54.37588414 703.46836459 54.37429469 706.95860559 54.38600711 710.44901169 C54.39610183 714.21476743 54.38769995 717.98005263 54.37473011 721.74578953 C54.38203946 722.82143883 54.3893488 723.89708813 54.39687964 725.00533286 C54.34433094 732.36629013 53.06842288 738.94249945 51 746 C49.68 746 48.36 746 47 746 C47.21215023 745.34630231 47.42430046 744.69260463 47.64287949 744.01909792 C49.80768816 736.84180584 50.4271278 730.36967513 50.38031673 722.9012146 C50.38497665 721.72684003 50.38963657 720.55246546 50.3944377 719.34250379 C50.40428822 716.09996486 50.40082967 712.85776424 50.39160402 709.61523393 C50.38486904 706.08108923 50.3955729 702.54698878 50.40399987 699.01285362 C50.41635344 692.82446195 50.41758488 686.63614611 50.41144943 680.44774628 C50.40235016 671.24531107 50.41039694 662.04294587 50.42174067 652.84051603 C50.44140203 636.40396051 50.44375607 619.96743653 50.43854547 603.53087205 C50.43398784 589.14694019 50.43458806 574.76302081 50.44038582 560.37908936 C50.44114268 558.44946015 50.44189866 556.51983094 50.44265376 554.59020174 C50.44379896 551.68241998 50.44494884 548.77463823 50.44611301 545.86685648 C50.45681714 518.83523775 50.46154406 491.80362318 50.45364285 464.77200317 C50.45334567 463.75313317 50.4530485 462.73426317 50.45274232 461.68451832 C50.45029339 453.41061797 50.4476818 445.13671767 50.44505819 436.86281738 C50.43495405 404.58365537 50.44331469 372.30454538 50.46655273 340.02539062 C50.49262041 303.75703283 50.50547474 267.48870634 50.49836498 231.22033882 C50.49764892 227.35386277 50.49697453 223.48738671 50.49632454 219.62091064 C50.49615473 218.66888997 50.49598492 217.7168693 50.49580997 216.73599951 C50.49350642 202.36132098 50.50148653 187.98667152 50.51461601 173.61199951 C50.52951866 157.26688114 50.53038182 140.92183093 50.5125451 124.57671404 C50.50297433 115.42960368 50.50443284 106.28265224 50.52177979 97.13555246 C50.53225962 91.0246887 50.52818252 84.91394614 50.51229975 78.80309433 C50.50365823 75.32197958 50.5012667 71.84117649 50.51656907 68.36007762 C50.52968955 64.60602038 50.51819791 60.85280616 50.50057125 57.0987854 C50.51022176 56.02382852 50.51987227 54.94887164 50.52981523 53.8413403 C50.41349188 41.7896873 45.88601971 30.60174262 37.84765625 21.5859375 C29.86205894 13.84624999 19.39531618 7.87197042 8.05685806 7.87695217 C6.55576016 7.8739656 6.55576016 7.8739656 5.02433705 7.87091869 C3.37843371 7.87528795 3.37843371 7.87528795 1.69927979 7.87974548 C0.53204966 7.87889106 -0.63518046 7.87803663 -1.83778119 7.87715632 C-5.07820718 7.87579274 -8.31859329 7.87892283 -11.55901456 7.88393438 C-15.05318275 7.88824899 -18.54734906 7.88679173 -22.04151917 7.8860321 C-28.09560335 7.88550751 -34.14967676 7.88864757 -40.20375824 7.89426994 C-48.95696548 7.90239368 -57.7101675 7.90500106 -66.4633781 7.90625793 C-80.6645532 7.90844708 -94.86572255 7.91510344 -109.06689453 7.92456055 C-122.86279268 7.93373822 -136.65868926 7.94081732 -150.45458984 7.94506836 C-151.30483269 7.94533108 -152.15507554 7.94559381 -153.03108332 7.94586449 C-157.29646108 7.94716952 -161.56183885 7.94843323 -165.82721663 7.94967639 C-201.21814851 7.96004472 -236.60907373 7.9776593 -272 8 C-271.67 7.01 -271.34 6.02 -271 5 C-268.59619308 3.79809654 -267.1126437 3.87573955 -264.42789268 3.87695217 C-263.45901001 3.87496112 -262.49012734 3.87297007 -261.49188459 3.87091869 C-260.41991759 3.87383153 -259.3479506 3.87674437 -258.24349976 3.87974548 C-257.1106469 3.87889106 -255.97779405 3.87803663 -254.81061232 3.87715632 C-250.98879742 3.87550029 -247.16702575 3.88102492 -243.34521484 3.88647461 C-240.61589022 3.8873123 -237.88656646 3.88664285 -235.15724182 3.8860321 C-229.26791302 3.88550696 -223.37859528 3.88865275 -217.48926926 3.89426994 C-208.97422272 3.90238625 -200.45918155 3.9050003 -191.94413157 3.90625793 C-178.13006905 3.90844825 -164.31601244 3.91510778 -150.50195312 3.92456055 C-137.08040395 3.9337352 -123.65885637 3.94081577 -110.23730469 3.94506836 C-108.9969962 3.94546244 -108.9969962 3.94546244 -107.73163097 3.94586449 C-103.58358451 3.9471695 -99.43553804 3.94843321 -95.28749156 3.94967639 C-60.85832346 3.96004836 -26.42916237 3.97766612 8 4 C8 3.34 8 2.68 8 2 C4.04 1.505 4.04 1.505 0 1 C0 0.67 0 0.34 0 0 Z " fill="#464646" transform="translate(320,0)"/>
<path d="M0 0 C8.7734607 6.12101909 12.50645005 16.53831538 14.55235291 26.75952148 C16.30810608 37.77320478 16.33298666 48.68388514 16.37890625 59.8125 C16.39488057 61.95847224 16.41174856 64.10443799 16.42944336 66.25039673 C16.46535735 70.80601152 16.49564422 75.36161317 16.52127075 79.91729736 C16.56145643 87.04048367 16.61414242 94.16353978 16.66967773 101.28662109 C16.68831601 103.68795771 16.70694697 106.08929438 16.72557068 108.4906311 C16.73482512 109.68117725 16.74407955 110.8717234 16.75361443 112.09834671 C16.78129542 115.71687458 16.80774168 119.33540964 16.83387756 122.95394897 C16.99004878 144.33248458 17.2387233 165.70926187 17.52820969 187.08636475 C17.56254775 189.62853543 17.59643277 192.17071174 17.63015747 194.71289062 C17.75082476 203.8086306 17.87361476 212.90433744 18 222 C17.34 222 16.68 222 16 222 C16.00170874 223.50746738 16.00170874 223.50746738 16.003452 225.04538864 C16.05348684 269.36135176 16.09976624 313.6773178 16.12702942 357.99330139 C16.12744359 358.66480897 16.12785776 359.33631654 16.12828448 360.02817283 C16.13726436 374.62378639 16.14557475 389.21940026 16.15319599 403.8150146 C16.15693782 410.97327477 16.1608275 418.13153487 16.16479492 425.28979492 C16.1651872 426.00210683 16.16557948 426.71441873 16.16598364 427.44831584 C16.17875503 450.51336633 16.2012795 473.57839469 16.22889166 496.64343179 C16.25722815 520.35672011 16.2756653 544.06999619 16.28174497 567.78330116 C16.28568185 583.05723868 16.29823169 598.33112219 16.3237494 613.6050408 C16.33963191 623.62324649 16.34439465 633.64141942 16.34050413 643.65963679 C16.33858652 649.43582143 16.34148438 655.21189517 16.35761642 660.98806 C16.37230286 666.28553539 16.372896 671.58282615 16.36269668 676.88031036 C16.36143763 678.78773718 16.36516864 680.69517591 16.37464955 682.60257959 C16.45849169 700.52544067 15.66689765 720.32229005 4 735 C1.75 736.875 1.75 736.875 0 738 C1.10787266 735.6990337 2.25429466 733.62326716 3.6875 731.5 C5.24380467 729.12201041 5.24380467 729.12201041 4.6875 726.6875 C4.3471875 725.8521875 4.3471875 725.8521875 4 725 C4.99 724.67 5.98 724.34 7 724 C10.28862106 716.69373815 10.43172307 708.76660614 10.38869667 700.89956379 C10.39703473 699.13771635 10.39703473 699.13771635 10.40554124 697.34027603 C10.41787087 694.09717767 10.41692298 690.85440598 10.41020811 687.61130153 C10.4061906 684.07645887 10.41953845 680.54167314 10.43060148 677.00685138 C10.44756583 670.81710639 10.45338845 664.62742903 10.45182419 658.43766212 C10.44950265 649.23292751 10.46423602 640.02827439 10.48211438 630.82355971 C10.51520539 613.42596149 10.52758851 596.02838556 10.5329227 578.63075946 C10.53351234 576.7133626 10.5341057 574.79596574 10.53470278 572.87856889 C10.5349985 571.92653716 10.53529423 570.97450542 10.53559891 569.99362424 C10.53919504 559.43627982 10.54807845 548.8789408 10.55720139 538.32159996 C10.58424439 506.42770623 10.6067773 474.53381888 10.60907936 442.63991261 C10.60915784 441.62018584 10.60923633 440.60045907 10.60931719 439.54983149 C10.60970743 434.38156243 10.61005799 429.21329337 10.61040695 424.04502431 C10.61055117 421.97069004 10.61069547 419.89635576 10.61083984 417.82202148 C10.6109065 416.79428908 10.61097315 415.76655667 10.61104183 414.70768086 C10.61333461 382.41501177 10.6429395 350.12246318 10.69287109 317.82983398 C10.74897632 281.53981562 10.78125877 245.2498785 10.78063047 208.95981425 C10.78065266 205.08903578 10.78077067 201.21825733 10.78095627 197.34747887 C10.78098873 196.39441216 10.78102119 195.44134545 10.78105463 194.45939793 C10.78214297 179.1329527 10.80592179 163.80662348 10.83770785 148.48021479 C10.86905043 133.07277978 10.87422595 117.66550484 10.85304923 102.25805113 C10.84121612 93.1096408 10.84867795 83.96173001 10.88417242 74.81337825 C10.90596569 68.69527471 10.90210883 62.57752681 10.87779519 56.45943385 C10.8646731 52.97809357 10.86227209 49.4977147 10.89121862 46.01644836 C10.99561695 30.49035151 10.998999 16.56401055 1.27289832 3.71907455 C0 2 0 2 0 0 Z " fill="#020202" transform="translate(363,21)"/>
<path d="M0 0 C0.66 0 1.32 0 2 0 C1.9559552 46.83173683 1.90833485 93.66346857 1.84101868 140.49517822 C1.84002311 141.18852215 1.83902754 141.88186607 1.83800181 142.59622042 C1.81634227 157.66517306 1.7940195 172.73412465 1.77101372 187.8030753 C1.7597354 195.19309819 1.7486036 202.5831213 1.73754883 209.97314453 C1.73644626 210.70853287 1.7353437 211.44392121 1.73420772 212.20159404 C1.69855186 236.02910351 1.67256794 259.85661157 1.65161031 283.68413812 C1.63001889 308.17408473 1.59864858 332.66399989 1.55500887 357.15391761 C1.54884681 360.61452615 1.5427963 364.07513487 1.53681374 367.53574371 C1.53563285 368.21682782 1.53445197 368.89791194 1.53323531 369.59963496 C1.51452831 380.55441903 1.50610161 391.50918795 1.50153876 402.46398604 C1.49672923 413.48258176 1.48080238 424.50112456 1.45433434 435.51969054 C1.44032243 441.48763851 1.43114744 447.45549075 1.43499184 453.42345619 C1.43840663 458.89031545 1.42801063 464.35697041 1.40676448 469.82378784 C1.40150419 471.79840926 1.40125368 473.77305194 1.40660437 475.74767312 C1.45245517 494.59233943 -1.13159436 509.51700913 -14.58203125 523.7109375 C-23.52161323 532.17393433 -33.23254407 537.51890042 -45.69921875 537.3515625 C-46.66472656 537.31804688 -47.63023437 537.28453125 -48.625 537.25 C-49.62917969 537.23195313 -50.63335937 537.21390625 -51.66796875 537.1953125 C-54.11302652 537.14873997 -56.55596812 537.08337028 -59 537 C-59 536.67 -59 536.34 -59 536 C-55.7 535.34 -52.4 534.68 -49 534 C-51.14301007 533.99641747 -51.14301007 533.99641747 -53.32931328 533.99276257 C-87.25898941 533.93537695 -121.18859896 533.86262809 -155.11820012 533.77101372 C-159.2962477 533.75974584 -163.47429561 533.74860734 -167.65234375 533.73754883 C-168.48410217 533.73534514 -169.31586058 533.73314146 -170.1728238 533.730871 C-183.63259978 533.6955187 -197.09237571 533.6706429 -210.55218087 533.64965298 C-224.36779787 533.62787445 -238.18335473 533.59480455 -251.99892056 533.55129844 C-260.52078009 533.52481706 -269.04256471 533.50709583 -277.56446333 533.50065396 C-283.41180977 533.49538931 -289.25906204 533.47913626 -295.10635798 533.45433434 C-298.47772756 533.44035595 -301.84878535 533.4327661 -305.22020531 533.43499184 C-308.88217859 533.43664595 -312.54363374 533.41993221 -316.20553589 533.39872742 C-317.26198205 533.40357499 -318.31842821 533.40842257 -319.40688789 533.41341704 C-332.38969186 533.2896268 -344.7274371 528.61844506 -354.37890625 519.75390625 C-362.6824106 510.7701148 -367.48997839 501.21501768 -368 489 C-367.01 489.33 -366.02 489.66 -365 490 C-364.078125 492.5546875 -364.078125 492.5546875 -363.25 495.875 C-359.8783571 507.52249366 -353.64666781 516.64774639 -343.03515625 522.6875 C-333.89941863 527.38523405 -326.88194564 529.29698972 -316.64668274 529.26742554 C-315.49775565 529.27195665 -314.34882856 529.27648776 -313.16508549 529.28115618 C-309.98459096 529.29161349 -306.80423891 529.29312822 -303.62373269 529.29076743 C-300.19004143 529.29035872 -296.7563837 529.30140369 -293.32270813 529.31088257 C-286.59810512 529.32748278 -279.87353718 529.3329917 -273.14891539 529.33410732 C-267.68051665 529.33505842 -262.21212945 529.33917177 -256.74373436 529.34550858 C-241.22971667 529.36311956 -225.71572663 529.37234786 -210.20169888 529.37084763 C-209.3656485 529.37076772 -208.52959813 529.3706878 -207.66821289 529.37060547 C-206.83113795 529.37052371 -205.99406301 529.37044195 -205.13162216 529.37035771 C-191.57261454 529.36954521 -178.01371812 529.38867419 -164.45474265 529.4168822 C-150.52256878 529.44563713 -136.59044908 529.45942101 -122.65824479 529.45769465 C-114.84041186 529.45703157 -107.02269545 529.46248756 -99.2048893 529.48405075 C-92.54705945 529.5022971 -85.88939892 529.50658179 -79.23155484 529.4930319 C-75.83763659 529.48651895 -72.44430677 529.48851337 -69.05037689 529.5037384 C-65.36270847 529.51920682 -61.67588608 529.50987065 -57.98823547 529.49447632 C-56.39656531 529.50990701 -56.39656531 529.50990701 -54.77274019 529.52564943 C-42.17652792 529.4098547 -30.40610334 524.28887504 -21.1875 515.6875 C-17.63117384 511.92891833 -15.27272914 507.61877213 -13 503 C-12.01 503.33 -11.02 503.66 -10 504 C-10.53115106 508.51478398 -12.36620292 511.34666857 -15 515 C-0.73063843 499.14515381 -0.69815347 478.37171124 -0.7215271 458.16970825 C-0.71651628 456.1859686 -0.7106382 454.20223099 -0.70397437 452.2184962 C-0.68825551 446.80016423 -0.68474818 441.38188423 -0.68332577 435.96353221 C-0.67961748 430.1082213 -0.66445493 424.25293844 -0.65071106 418.39764404 C-0.62847918 408.26380841 -0.61344144 398.1299828 -0.60334396 387.99612808 C-0.58873438 373.3444296 -0.56319774 358.69276233 -0.53501268 344.04108511 C-0.48941087 320.26747139 -0.45293721 296.49385163 -0.421875 272.72021484 C-0.39168691 249.63166417 -0.3573372 226.54312578 -0.31738281 203.45458984 C-0.31615181 202.74227248 -0.31492081 202.02995512 -0.3136525 201.29605239 C-0.30128511 194.14234177 -0.28883343 186.9886313 -0.27632002 179.83492093 C-0.25083312 165.26339172 -0.22590862 150.69186157 -0.20132446 136.12033081 C-0.20019355 135.45042916 -0.19906264 134.78052752 -0.19789747 134.09032582 C-0.1225061 89.3935648 -0.06026382 44.69678367 0 0 Z " fill="#373737" transform="translate(379,243)"/>
<path d="M0 0 C15.81696461 -0.68613368 28.26250415 -0.59054253 40.9140625 10.07421875 C51.47955082 19.82849917 59.14043205 32.0322494 60.19195747 46.67262077 C60.27702477 49.68152943 60.30129809 52.68495526 60.30297852 55.69506836 C60.31141785 56.831241 60.31985718 57.96741364 60.32855225 59.13801575 C60.35421874 62.87196298 60.36644711 66.6058312 60.37890625 70.33984375 C60.39509574 72.94861973 60.41227724 75.55738972 60.43040466 78.16615295 C60.47191366 84.32337464 60.50438866 90.48060452 60.53287882 96.63789898 C60.58697361 108.30673821 60.65538101 119.97547841 60.73081779 131.64419746 C60.75353614 135.46509655 60.76988215 139.28598463 60.78553772 143.10691833 C60.79895415 145.4631258 60.81256979 147.81933213 60.82641602 150.17553711 C60.83033607 151.75547958 60.83033607 151.75547958 60.83433533 153.36734009 C60.87256846 158.87416684 61.16919143 164.25412442 61.77584553 169.72673512 C62.09648614 172.97851514 62.11955128 176.20320703 62.11352539 179.46923828 C62.11367142 180.14369492 62.11381744 180.81815155 62.1139679 181.51304626 C62.11328216 183.69883671 62.10555403 185.88453731 62.09765625 188.0703125 C62.09578729 189.6030167 62.09436565 191.1357215 62.09336853 192.66842651 C62.08958097 196.66977639 62.07978354 200.671089 62.06866455 204.67242432 C62.05836883 208.76859025 62.05385356 212.86476231 62.04882812 216.9609375 C62.03815727 224.97397529 62.02112698 232.98698299 62 241 C59.39421251 238.39421251 59.73483436 237.29554426 59.69702148 233.66210938 C59.67198296 231.94726097 59.67198296 231.94726097 59.6464386 230.19776917 C59.6380748 228.92594284 59.629711 227.65411652 59.62109375 226.34375 C59.60520839 224.97764623 59.58847512 223.6115521 59.57096863 222.24546814 C59.53462742 219.25464859 59.50477151 216.26385248 59.47955322 213.2729187 C59.43861845 208.44360013 59.38167871 203.61453975 59.32373047 198.78540039 C59.11233194 180.61693317 58.9784432 162.44811379 58.86872864 144.27877808 C58.81778762 135.89662635 58.75791651 127.51454207 58.69671535 119.13245964 C58.64615477 112.05030456 58.60955095 104.9682468 58.58318424 97.88596249 C58.56356481 93.40124431 58.53188755 88.91666461 58.49730873 84.43203926 C58.48372679 82.34629546 58.47509051 80.26051218 58.47197533 78.17472649 C58.43868588 58.86027765 57.94790995 38.47346382 45 23 C44.13375 21.7315625 44.13375 21.7315625 43.25 20.4375 C36.71276641 13.35549694 25.74606054 6.26413338 16 5 C14.515 5.99 14.515 5.99 13 7 C10.79997617 7.25480902 10.79997617 7.25480902 8.17990589 7.26171303 C7.18116501 7.26917852 6.18242412 7.27664401 5.15341836 7.28433573 C3.50314575 7.28143363 3.50314575 7.28143363 1.8195343 7.2784729 C0.6531586 7.2842653 -0.51321709 7.2900577 -1.71493751 7.29602563 C-4.95764128 7.3101194 -8.20021928 7.31525827 -11.44294894 7.31667423 C-14.9378416 7.32036203 -18.43268644 7.33551436 -21.92755127 7.34928894 C-27.98437183 7.37158517 -34.04117543 7.38658421 -40.09802818 7.39665604 C-48.85526204 7.41122877 -57.6124368 7.4367616 -66.36963604 7.46498732 C-80.57689342 7.51048092 -94.7841593 7.54708509 -108.99145508 7.578125 C-122.79420463 7.60830004 -136.59693339 7.64264548 -150.3996582 7.68261719 C-151.25016377 7.68507874 -152.10066934 7.68754028 -152.97694781 7.69007643 C-157.24359641 7.70245082 -161.51024477 7.7149074 -165.77689302 7.72740483 C-201.18456682 7.83101106 -236.59226484 7.92020162 -272 8 C-271.67 7.01 -271.34 6.02 -271 5 C-268.59619308 3.79809654 -267.1126437 3.87573955 -264.42789268 3.87695217 C-263.45901001 3.87496112 -262.49012734 3.87297007 -261.49188459 3.87091869 C-260.41991759 3.87383153 -259.3479506 3.87674437 -258.24349976 3.87974548 C-257.1106469 3.87889106 -255.97779405 3.87803663 -254.81061232 3.87715632 C-250.98879742 3.87550029 -247.16702575 3.88102492 -243.34521484 3.88647461 C-240.61589022 3.8873123 -237.88656646 3.88664285 -235.15724182 3.8860321 C-229.26791302 3.88550696 -223.37859528 3.88865275 -217.48926926 3.89426994 C-208.97422272 3.90238625 -200.45918155 3.9050003 -191.94413157 3.90625793 C-178.13006905 3.90844825 -164.31601244 3.91510778 -150.50195312 3.92456055 C-137.08040395 3.9337352 -123.65885637 3.94081577 -110.23730469 3.94506836 C-108.9969962 3.94546244 -108.9969962 3.94546244 -107.73163097 3.94586449 C-103.58358451 3.9471695 -99.43553804 3.94843321 -95.28749156 3.94967639 C-60.85832346 3.96004836 -26.42916237 3.97766612 8 4 C8 3.34 8 2.68 8 2 C4.04 1.505 4.04 1.505 0 1 C0 0.67 0 0.34 0 0 Z " fill="#3E3E3E" transform="translate(320,0)"/>
<path d="M0 0 C15.81696461 -0.68613368 28.26250415 -0.59054253 40.9140625 10.07421875 C51.47955082 19.82849917 59.14043205 32.0322494 60.19195747 46.67262077 C60.27702477 49.68152943 60.30129809 52.68495526 60.30297852 55.69506836 C60.31141785 56.831241 60.31985718 57.96741364 60.32855225 59.13801575 C60.35421874 62.87196298 60.36644711 66.6058312 60.37890625 70.33984375 C60.39509574 72.94861973 60.41227724 75.55738972 60.43040466 78.16615295 C60.47191366 84.32337464 60.50438866 90.48060452 60.53287882 96.63789898 C60.58697361 108.30673821 60.65538101 119.97547841 60.73081779 131.64419746 C60.75353614 135.46509655 60.76988215 139.28598463 60.78553772 143.10691833 C60.79895415 145.4631258 60.81256979 147.81933213 60.82641602 150.17553711 C60.82902939 151.22883209 60.83164276 152.28212708 60.83433533 153.36734009 C60.87256846 158.87416684 61.16919143 164.25412442 61.77584553 169.72673512 C62.09648614 172.97851514 62.11955128 176.20320703 62.11352539 179.46923828 C62.11367142 180.14369492 62.11381744 180.81815155 62.1139679 181.51304626 C62.11328216 183.69883671 62.10555403 185.88453731 62.09765625 188.0703125 C62.09578729 189.6030167 62.09436565 191.1357215 62.09336853 192.66842651 C62.08958097 196.66977639 62.07978354 200.671089 62.06866455 204.67242432 C62.05836883 208.76859025 62.05385356 212.86476231 62.04882812 216.9609375 C62.03815727 224.97397529 62.02112698 232.98698299 62 241 C59.39421251 238.39421251 59.73483436 237.29554426 59.69702148 233.66210938 C59.68032913 232.51887711 59.66363678 231.37564484 59.6464386 230.19776917 C59.6338929 228.29002968 59.6338929 228.29002968 59.62109375 226.34375 C59.60520839 224.97764623 59.58847512 223.6115521 59.57096863 222.24546814 C59.53462742 219.25464859 59.50477151 216.26385248 59.47955322 213.2729187 C59.43861845 208.44360013 59.38167871 203.61453975 59.32373047 198.78540039 C59.11233194 180.61693317 58.9784432 162.44811379 58.86872864 144.27877808 C58.81778762 135.89662635 58.75791651 127.51454207 58.69671535 119.13245964 C58.64615477 112.05030456 58.60955095 104.9682468 58.58318424 97.88596249 C58.56356481 93.40124431 58.53188755 88.91666461 58.49730873 84.43203926 C58.48372679 82.34629546 58.47509051 80.26051218 58.47197533 78.17472649 C58.43868588 58.86027765 57.94790995 38.47346382 45 23 C44.4225 22.154375 43.845 21.30875 43.25 20.4375 C32.12412086 8.38446427 15.56579191 3.95927603 0 1 C0 0.67 0 0.34 0 0 Z " fill="#404040" transform="translate(320,0)"/>
<path d="M0 0 C0.97435712 -0.00199105 1.94871423 -0.0039821 2.95259732 -0.00603348 C4.02554242 -0.00312064 5.09848752 -0.0002078 6.20394611 0.00279331 C7.34173694 0.00193889 8.47952778 0.00108446 9.65179712 0.00020415 C13.48432547 -0.00144984 17.31681055 0.00406944 21.14933491 0.00952244 C23.88865913 0.01036043 26.62798248 0.00969058 29.36730671 0.00907993 C35.27517048 0.00855508 41.18302322 0.01169787 47.09088421 0.01731777 C55.63270383 0.02543797 64.17451811 0.02804853 72.71634118 0.02930576 C86.57421711 0.03149546 100.43208717 0.03815333 114.28995991 0.04760838 C127.75317575 0.05678461 141.21639 0.06386441 154.67960835 0.06811619 C155.92400325 0.06851027 155.92400325 0.06851027 157.19353744 0.06891232 C161.35529733 0.07021734 165.51705724 0.07148105 169.67881715 0.07272422 C204.21562479 0.08309428 238.7524256 0.10071038 273.28922749 0.12304783 C273.28922749 0.45304783 273.28922749 0.78304783 273.28922749 1.12304783 C272.71400844 1.1232652 272.1387894 1.12348256 271.54613948 1.12370652 C237.42537867 1.13723346 203.30475396 1.1767688 169.18406938 1.24990345 C165.0837058 1.2586698 160.9833418 1.26721968 156.88297749 1.27563572 C155.6585564 1.27815431 155.6585564 1.27815431 154.40939954 1.28072379 C141.20638634 1.30736617 128.00341657 1.31648689 114.80037925 1.31908926 C101.24463198 1.32215279 87.68900988 1.34414566 74.13331914 1.3835724 C65.7741638 1.40729257 57.41525861 1.41639083 49.05607429 1.40656094 C43.31752761 1.40122969 37.57920431 1.4143479 31.84072122 1.44171073 C28.53380944 1.45694246 25.22749648 1.46154918 21.92055607 1.44964504 C18.32466365 1.43798504 14.73016584 1.4572026 11.13438129 1.48381138 C9.58763269 1.46780149 9.58763269 1.46780149 8.00963664 1.45146817 C-2.04628181 1.58959749 -10.68791675 5.3840262 -18.96077251 10.93554783 C-20.32975689 11.8424033 -20.32975689 11.8424033 -21.72639751 12.76757908 C-22.38124126 13.21488377 -23.03608501 13.66218845 -23.71077251 14.12304783 C-24.37077251 13.46304783 -25.03077251 12.80304783 -25.71077251 12.12304783 C-18.36690599 6.15359208 -9.77427222 -0.00440084 0 0 Z " fill="#191919" transform="translate(46.71077251434326,-0.1230478286743164)"/>
<path d="M0 0 C6.81170221 5.01261874 6.81170221 5.01261874 8 10 C9.44058604 12.89882631 10.92804813 15.75932758 12.47265625 18.60351562 C14.68596582 22.84955093 15.5673668 26.30713155 16 31 C15.01 31 14.02 31 13 31 C12.78085937 30.32195313 12.56171875 29.64390625 12.3359375 28.9453125 C7.96096759 16.10495366 1.83130297 5.83739956 -10.39453125 -0.859375 C-16.18549614 -3.65332624 -16.18549614 -3.65332624 -22.3203125 -5.46875 C-22.87460937 -5.6440625 -23.42890625 -5.819375 -24 -6 C-24.33 -6.99 -24.66 -7.98 -25 -9 C-16.81041537 -11.91396849 -6.54226967 -4.4873972 0 0 Z " fill="#262626" transform="translate(357,14)"/>
<path d="M0 0 C15.24830804 -1.28657599 28.97613056 3.46720955 41 13 C48.91485223 20.15513692 54.24220717 29.70702575 57 40 C56.625 42.375 56.625 42.375 56 44 C55.70867187 43.154375 55.41734375 42.30875 55.1171875 41.4375 C52.55983878 34.36056016 49.86874369 28.71905949 45 23 C44.4225 22.154375 43.845 21.30875 43.25 20.4375 C32.12412086 8.38446427 15.56579191 3.95927603 0 1 C0 0.67 0 0.34 0 0 Z " fill="#A2A2A2" transform="translate(320,0)"/>
<path d="M0 0 C0.99 0.33 1.98 0.66 3 1 C3.921875 3.5546875 3.921875 3.5546875 4.75 6.875 C8.1216429 18.52249366 14.35333219 27.64774639 24.96484375 33.6875 C29.88345014 36.21672158 34.72198286 38.33202129 40 40 C36.85100792 42.09932806 35.78001688 42.32055389 32.15625 41.66796875 C18.99944399 37.59221906 10.28531166 28.37304514 3.70703125 16.70703125 C1.02657349 11.23967157 0.2527002 6.05216978 0 0 Z " fill="#262626" transform="translate(11,732)"/>
<path d="M0 0 C0.495 0.99 0.495 0.99 1 2 C-4.86525944 16.57725567 -15.21174506 23.07521766 -29 29 C-36.66641849 32.19701413 -43.74994761 32.34914015 -52 32 C-52 31.67 -52 31.34 -52 31 C-51.4423999 30.89042969 -50.8847998 30.78085937 -50.31030273 30.66796875 C-30.68119046 26.69980306 -14.85999967 20.83574665 -3 4 C-2.00372828 2.66387858 -1.00472182 1.32977887 0 0 Z " fill="#757575" transform="translate(372,748)"/>
<path d="M0 0 C0.99 0.33 1.98 0.66 3 1 C2.49047288 5.45836229 0.80244599 7.58451895 -2 11 C-2.11730469 11.63035156 -2.23460937 12.26070312 -2.35546875 12.91015625 C-4.33283837 19.32162744 -13.84096247 23.66445968 -19.375 26.625 C-22.3359375 28.1640625 -22.3359375 28.1640625 -25 29 C-27.3515625 28.1484375 -27.3515625 28.1484375 -29 27 C-29 26.34 -29 25.68 -29 25 C-28.10539062 24.59910156 -27.21078125 24.19820312 -26.2890625 23.78515625 C-14.66705988 18.3973448 -5.41749479 12.06105419 0 0 Z " fill="#222222" transform="translate(366,746)"/>
<path d="M0 0 C0.495 1.485 0.495 1.485 1 3 C0.24976563 3.268125 -0.50046875 3.53625 -1.2734375 3.8125 C-14.10562868 8.72558075 -23.29567282 16.14672935 -29.28125 28.68359375 C-30.97784731 32.76148658 -32.21433873 36.64805277 -33 41 C-34.485 41.495 -34.485 41.495 -36 42 C-35.56589546 33.3179093 -33.32788039 24.94091099 -27.625 18.1875 C-26.325625 17.1046875 -26.325625 17.1046875 -25 16 C-23.80308118 14.82199412 -22.61617137 13.63376348 -21.4375 12.4375 C-20.83679687 11.84195312 -20.23609375 11.24640625 -19.6171875 10.6328125 C-18.39315127 9.39694984 -17.21580425 8.1146177 -16.0625 6.8125 C-11.76116368 3.03253778 -5.76308018 0 0 0 Z " fill="#262626" transform="translate(47,6)"/>
<path d="M0 0 C9.2965231 -0.89389645 17.34307473 2.76196728 24.75 8.25 C33.89080038 15.95533173 43.02521934 26.73167517 45 39 C45.06688591 40.91561254 45.08531719 42.83335592 45.0625 44.75 C45.05347656 45.73484375 45.04445313 46.7196875 45.03515625 47.734375 C45.02355469 48.48203125 45.01195312 49.2296875 45 50 C44.67 50 44.34 50 44 50 C43.67128906 48.47632812 43.67128906 48.47632812 43.3359375 46.921875 C40.11388499 32.65750752 35.36221723 19.40512667 22.796875 10.80859375 C15.58694235 6.37264189 8.17225006 3.27505862 0 1 C0 0.67 0 0.34 0 0 Z " fill="#242424" transform="translate(334,0)"/>
<path d="M0 0 C0.33 0 0.66 0 1 0 C1.0494186 5.21442276 1.08572831 10.42870934 1.10986328 15.64331055 C1.11992411 17.41742324 1.13357422 19.19151935 1.15087891 20.96557617 C1.17512378 23.51485284 1.18648218 26.06391037 1.1953125 28.61328125 C1.20563507 29.40712723 1.21595764 30.20097321 1.22659302 31.01887512 C1.2273811 34.88223043 1.19440369 36.70839446 -1 40 C-0.67 40.33 -0.34 40.66 0 41 C2.30613363 55.97563321 2.20537645 73.16029422 -1 88 C-1.99 88.495 -1.99 88.495 -3 89 C-3.02529174 81.77344508 -3.04284219 74.5469015 -3.05493164 67.3203125 C-3.05996989 64.86034722 -3.0668006 62.40038495 -3.07543945 59.94042969 C-3.08752723 56.41079975 -3.09323329 52.88120931 -3.09765625 49.3515625 C-3.10281754 48.24632233 -3.10797882 47.14108215 -3.11329651 46.00234985 C-3.11337204 44.98144257 -3.11344757 43.96053528 -3.11352539 42.90869141 C-3.115746 42.00712311 -3.11796661 41.10555481 -3.12025452 40.17666626 C-3 38 -3 38 -2 36 C-1.34 36 -0.68 36 0 36 C0 24.12 0 12.24 0 0 Z " fill="#545454" transform="translate(4,126)"/>
<path d="M0 0 C0.68359375 1.671875 0.68359375 1.671875 1 4 C-4.93862176 16.96431326 -15.92895417 26.0949006 -29.0625 31.1875 C-31.84150474 31.95616088 -34.01058409 32.21180048 -36.875 32.125 C-38.04675781 32.09792969 -38.04675781 32.09792969 -39.2421875 32.0703125 C-40.11230469 32.03550781 -40.11230469 32.03550781 -41 32 C-37.72241375 30.2582875 -34.3628836 29.01068082 -30.875 27.75 C-17.48245568 22.59094597 -8.52811829 15.6718513 -1.91015625 2.75 C-1 1 -1 1 0 0 Z " fill="#222222" transform="translate(374,748)"/>
<path d="M0 0 C0.33 0.66 0.66 1.32 1 2 C0.67 2.99 0.34 3.98 0 5 C0.66 5 1.32 5 2 5 C3.24075947 11.73555138 3.14762266 18.41795731 3.125 25.25 C3.12886719 26.43335938 3.13273438 27.61671875 3.13671875 28.8359375 C3.13542969 29.96773438 3.13414062 31.09953125 3.1328125 32.265625 C3.13168457 33.29461914 3.13055664 34.32361328 3.12939453 35.38378906 C3 38 3 38 2 41 C1.73533064 43.86515081 1.55603846 46.72975948 1.37890625 49.6015625 C1.25386719 50.39304687 1.12882813 51.18453125 1 52 C0.01 52.495 0.01 52.495 -1 53 C-1.02526692 45.61271898 -1.0428316 38.22544902 -1.05493164 30.83813477 C-1.05997363 28.32283105 -1.06680703 25.80753028 -1.07543945 23.29223633 C-1.08751094 19.68570225 -1.09322949 16.07920677 -1.09765625 12.47265625 C-1.10281754 11.34038101 -1.10797882 10.20810577 -1.11329651 9.04151917 C-1.11337204 8.00051559 -1.11344757 6.95951202 -1.11352539 5.88696289 C-1.115746 4.96540909 -1.11796661 4.04385529 -1.12025452 3.09437561 C-1 1 -1 1 0 0 Z " fill="#404040" transform="translate(2,233)"/>
<path d="M0 0 C0.33 0 0.66 0 1 0 C1.02529373 6.94172388 1.04284304 13.88343594 1.05493164 20.82519531 C1.05996959 23.18815556 1.06680008 25.55111268 1.07543945 27.9140625 C1.08752854 31.30469535 1.09323359 34.69528709 1.09765625 38.0859375 C1.10281754 39.14743011 1.10797882 40.20892273 1.11329651 41.30258179 C1.11337204 42.28344757 1.11344757 43.26431335 1.11352539 44.27490234 C1.115746 45.14094086 1.11796661 46.00697937 1.12025452 46.89926147 C1 49 1 49 0 51 C-0.12978323 52.86186907 -0.20249985 54.72787227 -0.24609375 56.59375 C-0.27896484 57.70621094 -0.31183594 58.81867188 -0.34570312 59.96484375 C-0.40689849 62.32151645 -0.46419063 64.67829374 -0.51757812 67.03515625 C-0.55173828 68.14761719 -0.58589844 69.26007813 -0.62109375 70.40625 C-0.6461499 71.43041016 -0.67120605 72.45457031 -0.69702148 73.50976562 C-1 76 -1 76 -3 78 C-3.04939662 74.04903022 -3.08571755 70.0981797 -3.10986328 66.14697266 C-3.12488107 64.1408864 -3.15028981 62.13488676 -3.17578125 60.12890625 C-3.18544922 58.24365234 -3.18544922 58.24365234 -3.1953125 56.3203125 C-3.20578613 55.15773926 -3.21625977 53.99516602 -3.22705078 52.79736328 C-3 50 -3 50 -1 48 C-0.66965172 45.85947498 -0.66965172 45.85947498 -0.68115234 43.36669922 C-0.66128265 42.40585419 -0.64141296 41.44500916 -0.62094116 40.45504761 C-0.60938995 39.41542877 -0.59783875 38.37580994 -0.5859375 37.3046875 C-0.56657135 36.24210724 -0.5472052 35.17952698 -0.5272522 34.08474731 C-0.46733916 30.68158057 -0.42102402 27.27838022 -0.375 23.875 C-0.33683103 21.5715996 -0.29777995 19.26821364 -0.2578125 16.96484375 C-0.16162813 11.31002372 -0.07661519 5.65511717 0 0 Z " fill="#949494" transform="translate(4,47)"/>
<path d="M0 0 C1.8871875 0.0309375 1.8871875 0.0309375 3.8125 0.0625 C0.69870432 1.68932942 -2.47870324 2.97371511 -5.75 4.25 C-12.04997324 6.83818089 -17.57603179 10.22946955 -23.1875 14.0625 C-23.8475 13.4025 -24.5075 12.7425 -25.1875 12.0625 C-18.13669282 6.33125729 -9.4442327 -0.15482349 0 0 Z " fill="#515151" transform="translate(46.1875,-0.0625)"/>
<path d="M0 0 C0.54785156 0.37511719 1.09570312 0.75023437 1.66015625 1.13671875 C9.05053088 5.90741587 16.64827151 8.48334581 25 11 C25 11.33 25 11.66 25 12 C15.3412824 12.71546056 7.33090813 9.21533516 0 3 C0 2.01 0 1.02 0 0 Z " fill="#555555" transform="translate(25,768)"/>
<path d="M0 0 C0.33 0 0.66 0 1 0 C0.98839844 0.69867187 0.97679687 1.39734375 0.96484375 2.1171875 C0.95582031 3.02726563 0.94679688 3.93734375 0.9375 4.875 C0.92589844 5.77992188 0.91429687 6.68484375 0.90234375 7.6171875 C0.83750743 10.0168585 0.83750743 10.0168585 2 12 C1.44140625 14.1640625 1.44140625 14.1640625 0.5625 16.625 C0.27503906 17.44226563 -0.01242187 18.25953125 -0.30859375 19.1015625 C-0.65083984 20.04128906 -0.65083984 20.04128906 -1 21 C-2.32 20.34 -3.64 19.68 -5 19 C-4.80664062 18.38253906 -4.61328125 17.76507812 -4.4140625 17.12890625 C-2.67003849 11.45651132 -1.21782106 5.80806965 0 0 Z " fill="#343434" transform="translate(377,729)"/>
<path d="M0 0 C0.99 0.66 1.98 1.32 3 2 C-2.875 16.0625 -2.875 16.0625 -9 20 C-7.89212734 17.6990337 -6.74570534 15.62326716 -5.3125 13.5 C-3.75619533 11.12201041 -3.75619533 11.12201041 -4.3125 8.6875 C-4.6528125 7.8521875 -4.6528125 7.8521875 -5 7 C-4.01 6.67 -3.02 6.34 -2 6 C-0.77479736 2.99152582 -0.77479736 2.99152582 0 0 Z " fill="#0D0D0D" transform="translate(372,739)"/>
<path d="M0 0 C0.33 0 0.66 0 1 0 C2.0006709 5.96345767 2.0662997 10.28728907 0 16 C-1.32 16 -2.64 16 -4 16 C-2.68 10.72 -1.36 5.44 0 0 Z " fill="#2C2C2C" transform="translate(371,730)"/>
<path d="M0 0 C0.99 0.33 1.98 0.66 3 1 C2.52379711 5.37653129 1.33100111 7.06538005 -2.0625 9.8125 C-2.79597656 10.41707031 -3.52945312 11.02164063 -4.28515625 11.64453125 C-4.85105469 12.09183594 -5.41695313 12.53914062 -6 13 C-6.66 12.67 -7.32 12.34 -8 12 C-7.59007812 11.46890625 -7.18015625 10.9378125 -6.7578125 10.390625 C-6.21898437 9.68421875 -5.68015625 8.9778125 -5.125 8.25 C-4.59132813 7.55390625 -4.05765625 6.8578125 -3.5078125 6.140625 C-2.10761086 4.15277397 -1.02144735 2.20156614 0 0 Z " fill="#2B2B2B" transform="translate(366,746)"/>
<path d="M0 0 C4.76414273 3.57310705 7.37082252 6.64052284 10 12 C10 12.66 10 13.32 10 14 C9.01 14 8.02 14 7 14 C6.01780373 12.23084525 5.03934641 10.45961431 4.0625 8.6875 C3.51722656 7.70136719 2.97195313 6.71523438 2.41015625 5.69921875 C1 3 1 3 0 0 Z " fill="#101010" transform="translate(363,21)"/>
<path d="M0 0 C0.66 0 1.32 0 2 0 C1.89055285 4.45885926 1.75982334 8.91684156 1.625 13.375 C1.5940625 14.64601563 1.563125 15.91703125 1.53125 17.2265625 C1.49257813 18.43828125 1.45390625 19.65 1.4140625 20.8984375 C1.3826416 22.01911621 1.3512207 23.13979492 1.31884766 24.29443359 C1 27 1 27 -1 29 C-1.02465881 25.03069011 -1.04284023 21.06140966 -1.05493164 17.09204102 C-1.05997057 15.74079614 -1.06680177 14.38955674 -1.07543945 13.03833008 C-1.08752419 11.09979566 -1.09269828 9.161222 -1.09765625 7.22265625 C-1.10289307 6.05484619 -1.10812988 4.88703613 -1.11352539 3.68383789 C-1 1 -1 1 0 0 Z " fill="#5A5A5A" transform="translate(2,96)"/>
<path d="M0 0 C6.20970773 -0.33266291 10.28264895 0.54970669 16 3 C15.67 3.66 15.34 4.32 15 5 C9.88634986 3.9318153 4.92772031 2.76892524 0 1 C0 0.67 0 0.34 0 0 Z " fill="#1C1C1C" transform="translate(334,0)"/>
<path d="M0 0 C2.46305142 3.0009592 3.91069397 5.86188511 5.25 9.5 C5.60578125 10.4384375 5.9615625 11.376875 6.328125 12.34375 C7.01941191 15.07674477 6.95925156 16.39280344 6 19 C5.65066406 18.07316406 5.30132812 17.14632812 4.94140625 16.19140625 C4.25884766 14.39509766 4.25884766 14.39509766 3.5625 12.5625 C3.11003906 11.36753906 2.65757812 10.17257813 2.19140625 8.94140625 C1.2855174 6.15554277 1.2855174 6.15554277 0 5 C-0.04063832 3.33382885 -0.042721 1.66611905 0 0 Z " fill="#7C7C7C" transform="translate(370,25)"/>
<path d="M0 0 C1 2 1 2 0.3984375 3.875 C-2.39165911 9.6681777 -2.39165911 9.6681777 -5.75 11.5 C-6.4925 11.665 -7.235 11.83 -8 12 C-6.59023295 8.96147295 -4.91129772 6.4060405 -2.875 3.75 C-2.06675781 2.69039062 -2.06675781 2.69039062 -1.2421875 1.609375 C-0.83226562 1.07828125 -0.42234375 0.5471875 0 0 Z " fill="#707070" transform="translate(372,748)"/>
<path d="M0 0 C-2.61331914 1.41554787 -5.30718129 2.58131312 -8.0625 3.6875 C-8.73410156 3.95949219 -9.40570313 4.23148437 -10.09765625 4.51171875 C-12 5 -12 5 -15 4 C-14 2 -14 2 -11.4375 0.875 C-7.41710538 -0.14837318 -4.13490187 -0.14258282 0 0 Z " fill="#6F6F6F" transform="translate(50,0)"/>
<path d="M0 0 C-0.33 0.99 -0.66 1.98 -1 3 C-3.88211302 3.96070434 -5.69850044 4.10581883 -8.6875 4.0625 C-9.89986328 4.04896484 -9.89986328 4.04896484 -11.13671875 4.03515625 C-12.05904297 4.01775391 -12.05904297 4.01775391 -13 4 C-8.78216726 1.83187 -4.80744491 0 0 0 Z " fill="#161616" transform="translate(346,776)"/>
<path d="M0 0 C1.32 0 2.64 0 4 0 C4 3.3 4 6.6 4 10 C3.01 10.495 3.01 10.495 2 11 C1.66550467 9.35440244 1.33243501 7.70851502 1 6.0625 C0.814375 5.14597656 0.62875 4.22945312 0.4375 3.28515625 C0 1 0 1 0 0 Z " fill="#404040" transform="translate(376,44)"/>
<path d="M0 0 C2.97 1.65 5.94 3.3 9 5 C8.67 5.66 8.34 6.32 8 7 C2.25 5.25 2.25 5.25 0 3 C0 2.01 0 1.02 0 0 Z " fill="#414141" transform="translate(25,768)"/>
<path d="M0 0 C0.66 0 1.32 0 2 0 C1.67 2.64 1.34 5.28 1 8 C0.01 8.33 -0.98 8.66 -2 9 C-2.25 3.375 -2.25 3.375 0 0 Z " fill="#2E2E2E" transform="translate(13,39)"/>
<path d="M0 0 C0.99 0.66 1.98 1.32 3 2 C1.68 4.97 0.36 7.94 -1 11 C-2.13757948 6.44968209 -1.4283779 4.36915594 0 0 Z " fill="#070707" transform="translate(372,739)"/>
<path d="M0 0 C0.99 0.33 1.98 0.66 3 1 C3 6.28 3 11.56 3 17 C2.67 17 2.34 17 2 17 C2 12.38 2 7.76 2 3 C1.34 3 0.68 3 0 3 C0 2.01 0 1.02 0 0 Z " fill="#7D7D7E" transform="translate(2,216)"/>
<path d="M0 0 C0.33 0.99 0.66 1.98 1 3 C1.66 3 2.32 3 3 3 C2.34 4.32 1.68 5.64 1 7 C0.01 6.34 -0.98 5.68 -2 5 C-1.34 3.35 -0.68 1.7 0 0 Z " fill="#4B4B4B" transform="translate(374,743)"/>
</svg>
